<?xml version="1.0" standalone="no"?>
<!DOCTYPE svg PUBLIC "-//W3C//DTD SVG 20010904//EN"
 "http://www.w3.org/TR/2001/REC-SVG-20010904/DTD/svg10.dtd">
<svg version="1.0" xmlns="http://www.w3.org/2000/svg"
 width="512.000000pt" height="512.000000pt" viewBox="0 0 512.000000 512.000000"
 preserveAspectRatio="xMidYMid meet">

<g transform="translate(0.000000,512.000000) scale(0.100000,-0.100000)"
fill="#000000" stroke="none">
<path d="M2305 4679 c-822 -104 -1514 -671 -1770 -1453 -75 -228 -105 -420
-105 -666 0 -246 30 -438 105 -666 258 -788 952 -1353 1785 -1454 109 -13 371
-13 480 0 833 101 1527 666 1785 1454 75 228 105 420 105 666 0 247 -30 438
-106 669 -257 785 -952 1350 -1784 1451 -100 12 -395 11 -495 -1z m453 -210
c399 -43 771 -207 1074 -473 299 -261 528 -654 606 -1041 123 -602 -37 -1205
-442 -1667 -261 -299 -654 -528 -1041 -606 -602 -123 -1205 37 -1667 442 -299
261 -528 654 -606 1041 -123 602 37 1205 442 1667 263 300 656 529 1046 607
198 40 402 51 588 30z"/>
</g>
</svg>
