<?xml version="1.0" standalone="no"?>
<!DOCTYPE svg PUBLIC "-//W3C//DTD SVG 20010904//EN"
 "http://www.w3.org/TR/2001/REC-SVG-20010904/DTD/svg10.dtd">
<svg version="1.0" xmlns="http://www.w3.org/2000/svg"
 width="240.000000pt" height="240.000000pt" viewBox="0 0 240.000000 240.000000"
 preserveAspectRatio="xMidYMid meet">
<metadata>
Created by potrace 1.16, written by Peter Selinger 2001-2019
</metadata>
<g transform="translate(0.000000,240.000000) scale(0.100000,-0.100000)"
fill="#000000" stroke="none">
<path d="M1053 2270 c-113 -16 -226 -53 -339 -110 -156 -79 -272 -176 -382
-317 -61 -79 -148 -264 -179 -378 -23 -89 -26 -118 -26 -265 0 -146 3 -177 27
-265 45 -173 144 -351 265 -479 128 -135 329 -253 516 -303 89 -23 118 -26
265 -26 146 0 176 3 262 26 191 51 362 149 499 286 138 137 236 308 286 499
23 85 26 117 26 262 0 147 -3 176 -26 265 -125 468 -531 794 -1007 810 -69 2
-153 0 -187 -5z m327 -170 c367 -75 645 -353 720 -720 101 -496 -220 -978
-720 -1080 -496 -101 -978 220 -1080 720 -66 325 48 657 302 876 215 186 500
261 778 204z"/>
<path d="M1674 1558 c-16 -12 -54 -45 -84 -73 -30 -29 -104 -96 -165 -150
-171 -154 -305 -276 -354 -322 l-45 -41 -41 36 c-23 21 -88 79 -145 130 -92
81 -108 92 -141 92 -59 0 -96 -59 -69 -110 8 -15 117 -115 323 -297 27 -24 47
-33 72 -33 36 0 97 52 545 460 52 48 123 111 156 141 89 78 102 131 42 173
-31 22 -60 20 -94 -6z"/>
</g>
</svg>
